<?xml version="1.0" encoding="us-ascii" standalone="no"?><svg xmlns="http://www.w3.org/2000/svg" xmlns:xlink="http://www.w3.org/1999/xlink" contentStyleType="text/css" height="562px" preserveAspectRatio="none" style="width:836px;height:562px;background:#FFFFFF;" version="1.1" viewBox="0 0 836 562" width="836px" zoomAndPan="magnify"><defs/><g><!--class Worker--><g id="elem_Worker"><rect codeLine="1" fill="#F1F1F1" height="118.4375" id="Worker" rx="2.5" ry="2.5" style="stroke:#181818;stroke-width:0.5;" width="78" x="356.5" y="16"/><ellipse cx="371.5" cy="32" fill="#ADD1B2" rx="11" ry="11" style="stroke:#181818;stroke-width:1.0;"/><path d="M374.2656,27.875 Q374.4219,27.6563 374.6094,27.5469 Q374.7969,27.4375 375.0156,27.4375 Q375.3906,27.4375 375.625,27.6953 Q375.8594,27.9531 375.8594,28.5625 L375.8594,30.0156 Q375.8594,30.625 375.625,30.8906 Q375.3906,31.1563 375.0156,31.1563 Q374.6719,31.1563 374.4688,30.9531 Q374.2656,30.7656 374.1563,30.25 Q374.1094,29.8906 373.9219,29.7031 Q373.5938,29.3281 372.9844,29.1094 Q372.375,28.8906 371.75,28.8906 Q370.9844,28.8906 370.3516,29.2188 Q369.7188,29.5469 369.2266,30.2969 Q368.7344,31.0469 368.7344,32.0781 L368.7344,33.1719 Q368.7344,34.4063 369.625,35.2266 Q370.5156,36.0469 372.1094,36.0469 Q373.0469,36.0469 373.7031,35.7969 Q374.0938,35.6406 374.5156,35.2031 Q374.7813,34.9375 374.9297,34.8594 Q375.0781,34.7813 375.2813,34.7813 Q375.6094,34.7813 375.8672,35.0391 Q376.125,35.2969 376.125,35.6406 Q376.125,35.9844 375.7813,36.3906 Q375.2813,36.9688 374.4844,37.2969 Q373.4063,37.75 372.1094,37.75 Q370.5938,37.75 369.3906,37.125 Q368.4063,36.625 367.7188,35.5547 Q367.0313,34.4844 367.0313,33.2031 L367.0313,32.0469 Q367.0313,30.7188 367.6484,29.5703 Q368.2656,28.4219 369.3594,27.8047 Q370.4531,27.1875 371.6875,27.1875 Q372.4219,27.1875 373.0703,27.3516 Q373.7188,27.5156 374.2656,27.875 Z " fill="#000000"/><text fill="#000000" font-family="sans-serif" font-size="14" lengthAdjust="spacing" textLength="46" x="385.5" y="37.7285">Worker</text><line style="stroke:#181818;stroke-width:0.5;" x1="357.5" x2="433.5" y1="48" y2="48"/><line style="stroke:#181818;stroke-width:0.5;" x1="357.5" x2="433.5" y1="56" y2="56"/><text fill="#000000" font-family="sans-serif" font-size="14" lengthAdjust="spacing" textLength="38" x="362.5" y="74.5332">start()</text><text fill="#000000" font-family="sans-serif" font-size="14" lengthAdjust="spacing" textLength="59" x="362.5" y="92.1426">execute()</text><text fill="#000000" font-family="sans-serif" font-size="14" lengthAdjust="spacing" textLength="37" x="362.5" y="109.752">stop()</text><text fill="#000000" font-family="sans-serif" font-size="14" lengthAdjust="spacing" textLength="48" x="362.5" y="127.3613">action()</text></g><!--class TelegramBot--><g id="elem_TelegramBot"><rect codeLine="9" fill="#F1F1F1" height="83.2188" id="TelegramBot" rx="2.5" ry="2.5" style="stroke:#181818;stroke-width:0.5;" width="135" x="470" y="33.5"/><ellipse cx="494.9" cy="49.5" fill="#ADD1B2" rx="11" ry="11" style="stroke:#181818;stroke-width:1.0;"/><path d="M497.6656,45.375 Q497.8219,45.1563 498.0094,45.0469 Q498.1969,44.9375 498.4156,44.9375 Q498.7906,44.9375 499.025,45.1953 Q499.2594,45.4531 499.2594,46.0625 L499.2594,47.5156 Q499.2594,48.125 499.025,48.3906 Q498.7906,48.6563 498.4156,48.6563 Q498.0719,48.6563 497.8688,48.4531 Q497.6656,48.2656 497.5563,47.75 Q497.5094,47.3906 497.3219,47.2031 Q496.9938,46.8281 496.3844,46.6094 Q495.775,46.3906 495.15,46.3906 Q494.3844,46.3906 493.7516,46.7188 Q493.1188,47.0469 492.6266,47.7969 Q492.1344,48.5469 492.1344,49.5781 L492.1344,50.6719 Q492.1344,51.9063 493.025,52.7266 Q493.9156,53.5469 495.5094,53.5469 Q496.4469,53.5469 497.1031,53.2969 Q497.4938,53.1406 497.9156,52.7031 Q498.1813,52.4375 498.3297,52.3594 Q498.4781,52.2813 498.6813,52.2813 Q499.0094,52.2813 499.2672,52.5391 Q499.525,52.7969 499.525,53.1406 Q499.525,53.4844 499.1813,53.8906 Q498.6813,54.4688 497.8844,54.7969 Q496.8063,55.25 495.5094,55.25 Q493.9938,55.25 492.7906,54.625 Q491.8063,54.125 491.1188,53.0547 Q490.4313,51.9844 490.4313,50.7031 L490.4313,49.5469 Q490.4313,48.2188 491.0484,47.0703 Q491.6656,45.9219 492.7594,45.3047 Q493.8531,44.6875 495.0875,44.6875 Q495.8219,44.6875 496.4703,44.8516 Q497.1188,45.0156 497.6656,45.375 Z " fill="#000000"/><text fill="#000000" font-family="sans-serif" font-size="14" lengthAdjust="spacing" textLength="81" x="511.1" y="55.2285">TelegramBot</text><line style="stroke:#181818;stroke-width:0.5;" x1="471" x2="604" y1="65.5" y2="65.5"/><line style="stroke:#181818;stroke-width:0.5;" x1="471" x2="604" y1="73.5" y2="73.5"/><text fill="#000000" font-family="sans-serif" font-size="14" lengthAdjust="spacing" textLength="99" x="476" y="92.0332">init_user_chat()</text><text fill="#000000" font-family="sans-serif" font-size="14" lengthAdjust="spacing" textLength="123" x="476" y="109.6426">message_handler()</text></g><!--class Transaction--><g id="elem_Transaction"><rect codeLine="14" fill="#F1F1F1" height="136.0469" id="Transaction" rx="2.5" ry="2.5" style="stroke:#181818;stroke-width:0.5;" width="125" x="80" y="7"/><ellipse cx="103.1" cy="23" fill="#ADD1B2" rx="11" ry="11" style="stroke:#181818;stroke-width:1.0;"/><path d="M105.8656,18.875 Q106.0219,18.6563 106.2094,18.5469 Q106.3969,18.4375 106.6156,18.4375 Q106.9906,18.4375 107.225,18.6953 Q107.4594,18.9531 107.4594,19.5625 L107.4594,21.0156 Q107.4594,21.625 107.225,21.8906 Q106.9906,22.1563 106.6156,22.1563 Q106.2719,22.1563 106.0688,21.9531 Q105.8656,21.7656 105.7563,21.25 Q105.7094,20.8906 105.5219,20.7031 Q105.1938,20.3281 104.5844,20.1094 Q103.975,19.8906 103.35,19.8906 Q102.5844,19.8906 101.9516,20.2188 Q101.3188,20.5469 100.8266,21.2969 Q100.3344,22.0469 100.3344,23.0781 L100.3344,24.1719 Q100.3344,25.4063 101.225,26.2266 Q102.1156,27.0469 103.7094,27.0469 Q104.6469,27.0469 105.3031,26.7969 Q105.6938,26.6406 106.1156,26.2031 Q106.3813,25.9375 106.5297,25.8594 Q106.6781,25.7813 106.8813,25.7813 Q107.2094,25.7813 107.4672,26.0391 Q107.725,26.2969 107.725,26.6406 Q107.725,26.9844 107.3813,27.3906 Q106.8813,27.9688 106.0844,28.2969 Q105.0063,28.75 103.7094,28.75 Q102.1938,28.75 100.9906,28.125 Q100.0063,27.625 99.3188,26.5547 Q98.6313,25.4844 98.6313,24.2031 L98.6313,23.0469 Q98.6313,21.7188 99.2484,20.5703 Q99.8656,19.4219 100.9594,18.8047 Q102.0531,18.1875 103.2875,18.1875 Q104.0219,18.1875 104.6703,18.3516 Q105.3188,18.5156 105.8656,18.875 Z " fill="#000000"/><text fill="#000000" font-family="sans-serif" font-size="14" lengthAdjust="spacing" textLength="75" x="118.9" y="28.7285">Transaction</text><line style="stroke:#181818;stroke-width:0.5;" x1="81" x2="204" y1="39" y2="39"/><text fill="#000000" font-family="sans-serif" font-size="14" lengthAdjust="spacing" textLength="113" x="86" y="57.5332">transaction_batch</text><text fill="#000000" font-family="sans-serif" font-size="14" lengthAdjust="spacing" textLength="28" x="86" y="75.1426">from</text><text fill="#000000" font-family="sans-serif" font-size="14" lengthAdjust="spacing" textLength="12" x="86" y="92.752">to</text><text fill="#000000" font-family="sans-serif" font-size="14" lengthAdjust="spacing" textLength="35" x="86" y="110.3613">token</text><text fill="#000000" font-family="sans-serif" font-size="14" lengthAdjust="spacing" textLength="104" x="86" y="127.9707">transaction_time</text><line style="stroke:#181818;stroke-width:0.5;" x1="81" x2="204" y1="135.0469" y2="135.0469"/></g><!--class TransactionBatch--><g id="elem_TransactionBatch"><rect codeLine="22" fill="#F1F1F1" height="48" id="TransactionBatch" rx="2.5" ry="2.5" style="stroke:#181818;stroke-width:0.5;" width="143" x="7" y="203"/><ellipse cx="22" cy="219" fill="#ADD1B2" rx="11" ry="11" style="stroke:#181818;stroke-width:1.0;"/><path d="M24.7656,214.875 Q24.9219,214.6563 25.1094,214.5469 Q25.2969,214.4375 25.5156,214.4375 Q25.8906,214.4375 26.125,214.6953 Q26.3594,214.9531 26.3594,215.5625 L26.3594,217.0156 Q26.3594,217.625 26.125,217.8906 Q25.8906,218.1563 25.5156,218.1563 Q25.1719,218.1563 24.9688,217.9531 Q24.7656,217.7656 24.6563,217.25 Q24.6094,216.8906 24.4219,216.7031 Q24.0938,216.3281 23.4844,216.1094 Q22.875,215.8906 22.25,215.8906 Q21.4844,215.8906 20.8516,216.2188 Q20.2188,216.5469 19.7266,217.2969 Q19.2344,218.0469 19.2344,219.0781 L19.2344,220.1719 Q19.2344,221.4063 20.125,222.2266 Q21.0156,223.0469 22.6094,223.0469 Q23.5469,223.0469 24.2031,222.7969 Q24.5938,222.6406 25.0156,222.2031 Q25.2813,221.9375 25.4297,221.8594 Q25.5781,221.7813 25.7813,221.7813 Q26.1094,221.7813 26.3672,222.0391 Q26.625,222.2969 26.625,222.6406 Q26.625,222.9844 26.2813,223.3906 Q25.7813,223.9688 24.9844,224.2969 Q23.9063,224.75 22.6094,224.75 Q21.0938,224.75 19.8906,224.125 Q18.9063,223.625 18.2188,222.5547 Q17.5313,221.4844 17.5313,220.2031 L17.5313,219.0469 Q17.5313,217.7188 18.1484,216.5703 Q18.7656,215.4219 19.8594,214.8047 Q20.9531,214.1875 22.1875,214.1875 Q22.9219,214.1875 23.5703,214.3516 Q24.2188,214.5156 24.7656,214.875 Z " fill="#000000"/><text fill="#000000" font-family="sans-serif" font-size="14" lengthAdjust="spacing" textLength="111" x="36" y="224.7285">TransactionBatch</text><line style="stroke:#181818;stroke-width:0.5;" x1="8" x2="149" y1="235" y2="235"/><line style="stroke:#181818;stroke-width:0.5;" x1="8" x2="149" y1="243" y2="243"/></g><!--class TokensBag--><g id="elem_TokensBag"><rect codeLine="24" fill="#F1F1F1" height="83.2188" id="TokensBag" rx="2.5" ry="2.5" style="stroke:#181818;stroke-width:0.5;" width="104" x="178.5" y="472"/><ellipse cx="193.5" cy="488" fill="#ADD1B2" rx="11" ry="11" style="stroke:#181818;stroke-width:1.0;"/><path d="M196.2656,483.875 Q196.4219,483.6563 196.6094,483.5469 Q196.7969,483.4375 197.0156,483.4375 Q197.3906,483.4375 197.625,483.6953 Q197.8594,483.9531 197.8594,484.5625 L197.8594,486.0156 Q197.8594,486.625 197.625,486.8906 Q197.3906,487.1563 197.0156,487.1563 Q196.6719,487.1563 196.4688,486.9531 Q196.2656,486.7656 196.1563,486.25 Q196.1094,485.8906 195.9219,485.7031 Q195.5938,485.3281 194.9844,485.1094 Q194.375,484.8906 193.75,484.8906 Q192.9844,484.8906 192.3516,485.2188 Q191.7188,485.5469 191.2266,486.2969 Q190.7344,487.0469 190.7344,488.0781 L190.7344,489.1719 Q190.7344,490.4063 191.625,491.2266 Q192.5156,492.0469 194.1094,492.0469 Q195.0469,492.0469 195.7031,491.7969 Q196.0938,491.6406 196.5156,491.2031 Q196.7813,490.9375 196.9297,490.8594 Q197.0781,490.7813 197.2813,490.7813 Q197.6094,490.7813 197.8672,491.0391 Q198.125,491.2969 198.125,491.6406 Q198.125,491.9844 197.7813,492.3906 Q197.2813,492.9688 196.4844,493.2969 Q195.4063,493.75 194.1094,493.75 Q192.5938,493.75 191.3906,493.125 Q190.4063,492.625 189.7188,491.5547 Q189.0313,490.4844 189.0313,489.2031 L189.0313,488.0469 Q189.0313,486.7188 189.6484,485.5703 Q190.2656,484.4219 191.3594,483.8047 Q192.4531,483.1875 193.6875,483.1875 Q194.4219,483.1875 195.0703,483.3516 Q195.7188,483.5156 196.2656,483.875 Z " fill="#000000"/><text fill="#000000" font-family="sans-serif" font-size="14" lengthAdjust="spacing" textLength="72" x="207.5" y="493.7285">TokensBag</text><line style="stroke:#181818;stroke-width:0.5;" x1="179.5" x2="281.5" y1="504" y2="504"/><text fill="#000000" font-family="sans-serif" font-size="14" lengthAdjust="spacing" textLength="28" x="184.5" y="522.5332">user</text><text fill="#000000" font-family="sans-serif" font-size="14" lengthAdjust="spacing" textLength="70" x="184.5" y="540.1426">List[Token]</text><line style="stroke:#181818;stroke-width:0.5;" x1="179.5" x2="281.5" y1="547.2188" y2="547.2188"/></g><!--class Wallet--><g id="elem_Wallet"><rect codeLine="29" fill="#F1F1F1" height="100.8281" id="Wallet" rx="2.5" ry="2.5" style="stroke:#181818;stroke-width:0.5;" width="71" x="195" y="311"/><ellipse cx="210" cy="327" fill="#ADD1B2" rx="11" ry="11" style="stroke:#181818;stroke-width:1.0;"/><path d="M212.7656,322.875 Q212.9219,322.6563 213.1094,322.5469 Q213.2969,322.4375 213.5156,322.4375 Q213.8906,322.4375 214.125,322.6953 Q214.3594,322.9531 214.3594,323.5625 L214.3594,325.0156 Q214.3594,325.625 214.125,325.8906 Q213.8906,326.1563 213.5156,326.1563 Q213.1719,326.1563 212.9688,325.9531 Q212.7656,325.7656 212.6563,325.25 Q212.6094,324.8906 212.4219,324.7031 Q212.0938,324.3281 211.4844,324.1094 Q210.875,323.8906 210.25,323.8906 Q209.4844,323.8906 208.8516,324.2188 Q208.2188,324.5469 207.7266,325.2969 Q207.2344,326.0469 207.2344,327.0781 L207.2344,328.1719 Q207.2344,329.4063 208.125,330.2266 Q209.0156,331.0469 210.6094,331.0469 Q211.5469,331.0469 212.2031,330.7969 Q212.5938,330.6406 213.0156,330.2031 Q213.2813,329.9375 213.4297,329.8594 Q213.5781,329.7813 213.7813,329.7813 Q214.1094,329.7813 214.3672,330.0391 Q214.625,330.2969 214.625,330.6406 Q214.625,330.9844 214.2813,331.3906 Q213.7813,331.9688 212.9844,332.2969 Q211.9063,332.75 210.6094,332.75 Q209.0938,332.75 207.8906,332.125 Q206.9063,331.625 206.2188,330.5547 Q205.5313,329.4844 205.5313,328.2031 L205.5313,327.0469 Q205.5313,325.7188 206.1484,324.5703 Q206.7656,323.4219 207.8594,322.8047 Q208.9531,322.1875 210.1875,322.1875 Q210.9219,322.1875 211.5703,322.3516 Q212.2188,322.5156 212.7656,322.875 Z " fill="#000000"/><text fill="#000000" font-family="sans-serif" font-size="14" lengthAdjust="spacing" textLength="39" x="224" y="332.7285">Wallet</text><line style="stroke:#181818;stroke-width:0.5;" x1="196" x2="265" y1="343" y2="343"/><text fill="#000000" font-family="sans-serif" font-size="14" lengthAdjust="spacing" textLength="28" x="201" y="361.5332">user</text><text fill="#000000" font-family="sans-serif" font-size="14" lengthAdjust="spacing" textLength="55" x="201" y="379.1426">currency</text><text fill="#000000" font-family="sans-serif" font-size="14" lengthAdjust="spacing" textLength="47" x="201" y="396.752">amount</text><line style="stroke:#181818;stroke-width:0.5;" x1="196" x2="265" y1="403.8281" y2="403.8281"/></g><!--class Token--><g id="elem_Token"><rect codeLine="35" fill="#F1F1F1" height="48" id="Token" rx="2.5" ry="2.5" style="stroke:#181818;stroke-width:0.5;" width="72" x="249.5" y="51"/><ellipse cx="264.5" cy="67" fill="#ADD1B2" rx="11" ry="11" style="stroke:#181818;stroke-width:1.0;"/><path d="M267.2656,62.875 Q267.4219,62.6563 267.6094,62.5469 Q267.7969,62.4375 268.0156,62.4375 Q268.3906,62.4375 268.625,62.6953 Q268.8594,62.9531 268.8594,63.5625 L268.8594,65.0156 Q268.8594,65.625 268.625,65.8906 Q268.3906,66.1563 268.0156,66.1563 Q267.6719,66.1563 267.4688,65.9531 Q267.2656,65.7656 267.1563,65.25 Q267.1094,64.8906 266.9219,64.7031 Q266.5938,64.3281 265.9844,64.1094 Q265.375,63.8906 264.75,63.8906 Q263.9844,63.8906 263.3516,64.2188 Q262.7188,64.5469 262.2266,65.2969 Q261.7344,66.0469 261.7344,67.0781 L261.7344,68.1719 Q261.7344,69.4063 262.625,70.2266 Q263.5156,71.0469 265.1094,71.0469 Q266.0469,71.0469 266.7031,70.7969 Q267.0938,70.6406 267.5156,70.2031 Q267.7813,69.9375 267.9297,69.8594 Q268.0781,69.7813 268.2813,69.7813 Q268.6094,69.7813 268.8672,70.0391 Q269.125,70.2969 269.125,70.6406 Q269.125,70.9844 268.7813,71.3906 Q268.2813,71.9688 267.4844,72.2969 Q266.4063,72.75 265.1094,72.75 Q263.5938,72.75 262.3906,72.125 Q261.4063,71.625 260.7188,70.5547 Q260.0313,69.4844 260.0313,68.2031 L260.0313,67.0469 Q260.0313,65.7188 260.6484,64.5703 Q261.2656,63.4219 262.3594,62.8047 Q263.4531,62.1875 264.6875,62.1875 Q265.4219,62.1875 266.0703,62.3516 Q266.7188,62.5156 267.2656,62.875 Z " fill="#000000"/><text fill="#000000" font-family="sans-serif" font-size="14" lengthAdjust="spacing" textLength="40" x="278.5" y="72.7285">Token</text><line style="stroke:#181818;stroke-width:0.5;" x1="250.5" x2="320.5" y1="83" y2="83"/><line style="stroke:#181818;stroke-width:0.5;" x1="250.5" x2="320.5" y1="91" y2="91"/></g><!--class Currency--><g id="elem_Currency"><rect codeLine="36" fill="#F1F1F1" height="48" id="Currency" rx="2.5" ry="2.5" style="stroke:#181818;stroke-width:0.5;" width="90" x="185.5" y="203"/><ellipse cx="200.5" cy="219" fill="#ADD1B2" rx="11" ry="11" style="stroke:#181818;stroke-width:1.0;"/><path d="M203.2656,214.875 Q203.4219,214.6563 203.6094,214.5469 Q203.7969,214.4375 204.0156,214.4375 Q204.3906,214.4375 204.625,214.6953 Q204.8594,214.9531 204.8594,215.5625 L204.8594,217.0156 Q204.8594,217.625 204.625,217.8906 Q204.3906,218.1563 204.0156,218.1563 Q203.6719,218.1563 203.4688,217.9531 Q203.2656,217.7656 203.1563,217.25 Q203.1094,216.8906 202.9219,216.7031 Q202.5938,216.3281 201.9844,216.1094 Q201.375,215.8906 200.75,215.8906 Q199.9844,215.8906 199.3516,216.2188 Q198.7188,216.5469 198.2266,217.2969 Q197.7344,218.0469 197.7344,219.0781 L197.7344,220.1719 Q197.7344,221.4063 198.625,222.2266 Q199.5156,223.0469 201.1094,223.0469 Q202.0469,223.0469 202.7031,222.7969 Q203.0938,222.6406 203.5156,222.2031 Q203.7813,221.9375 203.9297,221.8594 Q204.0781,221.7813 204.2813,221.7813 Q204.6094,221.7813 204.8672,222.0391 Q205.125,222.2969 205.125,222.6406 Q205.125,222.9844 204.7813,223.3906 Q204.2813,223.9688 203.4844,224.2969 Q202.4063,224.75 201.1094,224.75 Q199.5938,224.75 198.3906,224.125 Q197.4063,223.625 196.7188,222.5547 Q196.0313,221.4844 196.0313,220.2031 L196.0313,219.0469 Q196.0313,217.7188 196.6484,216.5703 Q197.2656,215.4219 198.3594,214.8047 Q199.4531,214.1875 200.6875,214.1875 Q201.4219,214.1875 202.0703,214.3516 Q202.7188,214.5156 203.2656,214.875 Z " fill="#000000"/><text fill="#000000" font-family="sans-serif" font-size="14" lengthAdjust="spacing" textLength="58" x="214.5" y="224.7285">Currency</text><line style="stroke:#181818;stroke-width:0.5;" x1="186.5" x2="274.5" y1="235" y2="235"/><line style="stroke:#181818;stroke-width:0.5;" x1="186.5" x2="274.5" y1="243" y2="243"/></g><!--class NFT--><g id="elem_NFT"><rect codeLine="37" fill="#F1F1F1" height="48" id="NFT" rx="2.5" ry="2.5" style="stroke:#181818;stroke-width:0.5;" width="59" x="311" y="203"/><ellipse cx="326" cy="219" fill="#ADD1B2" rx="11" ry="11" style="stroke:#181818;stroke-width:1.0;"/><path d="M328.7656,214.875 Q328.9219,214.6563 329.1094,214.5469 Q329.2969,214.4375 329.5156,214.4375 Q329.8906,214.4375 330.125,214.6953 Q330.3594,214.9531 330.3594,215.5625 L330.3594,217.0156 Q330.3594,217.625 330.125,217.8906 Q329.8906,218.1563 329.5156,218.1563 Q329.1719,218.1563 328.9688,217.9531 Q328.7656,217.7656 328.6563,217.25 Q328.6094,216.8906 328.4219,216.7031 Q328.0938,216.3281 327.4844,216.1094 Q326.875,215.8906 326.25,215.8906 Q325.4844,215.8906 324.8516,216.2188 Q324.2188,216.5469 323.7266,217.2969 Q323.2344,218.0469 323.2344,219.0781 L323.2344,220.1719 Q323.2344,221.4063 324.125,222.2266 Q325.0156,223.0469 326.6094,223.0469 Q327.5469,223.0469 328.2031,222.7969 Q328.5938,222.6406 329.0156,222.2031 Q329.2813,221.9375 329.4297,221.8594 Q329.5781,221.7813 329.7813,221.7813 Q330.1094,221.7813 330.3672,222.0391 Q330.625,222.2969 330.625,222.6406 Q330.625,222.9844 330.2813,223.3906 Q329.7813,223.9688 328.9844,224.2969 Q327.9063,224.75 326.6094,224.75 Q325.0938,224.75 323.8906,224.125 Q322.9063,223.625 322.2188,222.5547 Q321.5313,221.4844 321.5313,220.2031 L321.5313,219.0469 Q321.5313,217.7188 322.1484,216.5703 Q322.7656,215.4219 323.8594,214.8047 Q324.9531,214.1875 326.1875,214.1875 Q326.9219,214.1875 327.5703,214.3516 Q328.2188,214.5156 328.7656,214.875 Z " fill="#000000"/><text fill="#000000" font-family="sans-serif" font-size="14" lengthAdjust="spacing" textLength="27" x="340" y="224.7285">NFT</text><line style="stroke:#181818;stroke-width:0.5;" x1="312" x2="369" y1="235" y2="235"/><line style="stroke:#181818;stroke-width:0.5;" x1="312" x2="369" y1="243" y2="243"/></g><!--class SystemService--><g id="elem_SystemService"><rect codeLine="39" fill="#F1F1F1" height="65.6094" id="SystemService" rx="2.5" ry="2.5" style="stroke:#181818;stroke-width:0.5;" width="125" x="640" y="42"/><ellipse cx="655" cy="58" fill="#ADD1B2" rx="11" ry="11" style="stroke:#181818;stroke-width:1.0;"/><path d="M657.7656,53.875 Q657.9219,53.6563 658.1094,53.5469 Q658.2969,53.4375 658.5156,53.4375 Q658.8906,53.4375 659.125,53.6953 Q659.3594,53.9531 659.3594,54.5625 L659.3594,56.0156 Q659.3594,56.625 659.125,56.8906 Q658.8906,57.1563 658.5156,57.1563 Q658.1719,57.1563 657.9688,56.9531 Q657.7656,56.7656 657.6563,56.25 Q657.6094,55.8906 657.4219,55.7031 Q657.0938,55.3281 656.4844,55.1094 Q655.875,54.8906 655.25,54.8906 Q654.4844,54.8906 653.8516,55.2188 Q653.2188,55.5469 652.7266,56.2969 Q652.2344,57.0469 652.2344,58.0781 L652.2344,59.1719 Q652.2344,60.4063 653.125,61.2266 Q654.0156,62.0469 655.6094,62.0469 Q656.5469,62.0469 657.2031,61.7969 Q657.5938,61.6406 658.0156,61.2031 Q658.2813,60.9375 658.4297,60.8594 Q658.5781,60.7813 658.7813,60.7813 Q659.1094,60.7813 659.3672,61.0391 Q659.625,61.2969 659.625,61.6406 Q659.625,61.9844 659.2813,62.3906 Q658.7813,62.9688 657.9844,63.2969 Q656.9063,63.75 655.6094,63.75 Q654.0938,63.75 652.8906,63.125 Q651.9063,62.625 651.2188,61.5547 Q650.5313,60.4844 650.5313,59.2031 L650.5313,58.0469 Q650.5313,56.7188 651.1484,55.5703 Q651.7656,54.4219 652.8594,53.8047 Q653.9531,53.1875 655.1875,53.1875 Q655.9219,53.1875 656.5703,53.3516 Q657.2188,53.5156 657.7656,53.875 Z " fill="#000000"/><text fill="#000000" font-family="sans-serif" font-size="14" lengthAdjust="spacing" textLength="93" x="669" y="63.7285">SystemService</text><line style="stroke:#181818;stroke-width:0.5;" x1="641" x2="764" y1="74" y2="74"/><line style="stroke:#181818;stroke-width:0.5;" x1="641" x2="764" y1="82" y2="82"/><text fill="#000000" font-family="sans-serif" font-size="14" lengthAdjust="spacing" textLength="46" x="646" y="100.5332">install()</text></g><!--class WinService--><g id="elem_WinService"><rect codeLine="42" fill="#F1F1F1" height="48" id="WinService" rx="2.5" ry="2.5" style="stroke:#181818;stroke-width:0.5;" width="103" x="579" y="203"/><ellipse cx="594" cy="219" fill="#ADD1B2" rx="11" ry="11" style="stroke:#181818;stroke-width:1.0;"/><path d="M596.7656,214.875 Q596.9219,214.6563 597.1094,214.5469 Q597.2969,214.4375 597.5156,214.4375 Q597.8906,214.4375 598.125,214.6953 Q598.3594,214.9531 598.3594,215.5625 L598.3594,217.0156 Q598.3594,217.625 598.125,217.8906 Q597.8906,218.1563 597.5156,218.1563 Q597.1719,218.1563 596.9688,217.9531 Q596.7656,217.7656 596.6563,217.25 Q596.6094,216.8906 596.4219,216.7031 Q596.0938,216.3281 595.4844,216.1094 Q594.875,215.8906 594.25,215.8906 Q593.4844,215.8906 592.8516,216.2188 Q592.2188,216.5469 591.7266,217.2969 Q591.2344,218.0469 591.2344,219.0781 L591.2344,220.1719 Q591.2344,221.4063 592.125,222.2266 Q593.0156,223.0469 594.6094,223.0469 Q595.5469,223.0469 596.2031,222.7969 Q596.5938,222.6406 597.0156,222.2031 Q597.2813,221.9375 597.4297,221.8594 Q597.5781,221.7813 597.7813,221.7813 Q598.1094,221.7813 598.3672,222.0391 Q598.625,222.2969 598.625,222.6406 Q598.625,222.9844 598.2813,223.3906 Q597.7813,223.9688 596.9844,224.2969 Q595.9063,224.75 594.6094,224.75 Q593.0938,224.75 591.8906,224.125 Q590.9063,223.625 590.2188,222.5547 Q589.5313,221.4844 589.5313,220.2031 L589.5313,219.0469 Q589.5313,217.7188 590.1484,216.5703 Q590.7656,215.4219 591.8594,214.8047 Q592.9531,214.1875 594.1875,214.1875 Q594.9219,214.1875 595.5703,214.3516 Q596.2188,214.5156 596.7656,214.875 Z " fill="#000000"/><text fill="#000000" font-family="sans-serif" font-size="14" lengthAdjust="spacing" textLength="71" x="608" y="224.7285">WinService</text><line style="stroke:#181818;stroke-width:0.5;" x1="580" x2="681" y1="235" y2="235"/><line style="stroke:#181818;stroke-width:0.5;" x1="580" x2="681" y1="243" y2="243"/></g><!--class LinuxService--><g id="elem_LinuxService"><rect codeLine="43" fill="#F1F1F1" height="48" id="LinuxService" rx="2.5" ry="2.5" style="stroke:#181818;stroke-width:0.5;" width="112" x="717.5" y="203"/><ellipse cx="732.5" cy="219" fill="#ADD1B2" rx="11" ry="11" style="stroke:#181818;stroke-width:1.0;"/><path d="M735.2656,214.875 Q735.4219,214.6563 735.6094,214.5469 Q735.7969,214.4375 736.0156,214.4375 Q736.3906,214.4375 736.625,214.6953 Q736.8594,214.9531 736.8594,215.5625 L736.8594,217.0156 Q736.8594,217.625 736.625,217.8906 Q736.3906,218.1563 736.0156,218.1563 Q735.6719,218.1563 735.4688,217.9531 Q735.2656,217.7656 735.1563,217.25 Q735.1094,216.8906 734.9219,216.7031 Q734.5938,216.3281 733.9844,216.1094 Q733.375,215.8906 732.75,215.8906 Q731.9844,215.8906 731.3516,216.2188 Q730.7188,216.5469 730.2266,217.2969 Q729.7344,218.0469 729.7344,219.0781 L729.7344,220.1719 Q729.7344,221.4063 730.625,222.2266 Q731.5156,223.0469 733.1094,223.0469 Q734.0469,223.0469 734.7031,222.7969 Q735.0938,222.6406 735.5156,222.2031 Q735.7813,221.9375 735.9297,221.8594 Q736.0781,221.7813 736.2813,221.7813 Q736.6094,221.7813 736.8672,222.0391 Q737.125,222.2969 737.125,222.6406 Q737.125,222.9844 736.7813,223.3906 Q736.2813,223.9688 735.4844,224.2969 Q734.4063,224.75 733.1094,224.75 Q731.5938,224.75 730.3906,224.125 Q729.4063,223.625 728.7188,222.5547 Q728.0313,221.4844 728.0313,220.2031 L728.0313,219.0469 Q728.0313,217.7188 728.6484,216.5703 Q729.2656,215.4219 730.3594,214.8047 Q731.4531,214.1875 732.6875,214.1875 Q733.4219,214.1875 734.0703,214.3516 Q734.7188,214.5156 735.2656,214.875 Z " fill="#000000"/><text fill="#000000" font-family="sans-serif" font-size="14" lengthAdjust="spacing" textLength="80" x="746.5" y="224.7285">LinuxService</text><line style="stroke:#181818;stroke-width:0.5;" x1="718.5" x2="828.5" y1="235" y2="235"/><line style="stroke:#181818;stroke-width:0.5;" x1="718.5" x2="828.5" y1="243" y2="243"/></g><!--reverse link SystemService to WinService--><g id="link_SystemService_WinService"><path codeLine="45" d="M679.264,124.4089 C665.634,152.8189 653.87,177.32 641.69,202.69 " fill="none" id="SystemService-backto-WinService" style="stroke:#181818;stroke-width:1.0;"/><polygon fill="none" points="687.05,108.18,673.8544,121.8136,684.6736,127.0043,687.05,108.18" style="stroke:#181818;stroke-width:1.0;"/></g><!--reverse link SystemService to LinuxService--><g id="link_SystemService_LinuxService"><path codeLine="46" d="M725.4321,124.4489 C738.8821,152.8589 750.46,177.32 762.47,202.69 " fill="none" id="SystemService-backto-LinuxService" style="stroke:#181818;stroke-width:1.0;"/><polygon fill="none" points="717.73,108.18,720.0091,127.0163,730.8551,121.8815,717.73,108.18" style="stroke:#181818;stroke-width:1.0;"/></g><!--reverse link Token to Currency--><g id="link_Token_Currency"><path codeLine="48" d="M270.8299,116.0085 C260.5199,144.1085 249.42,174.39 239.07,202.62 " fill="none" id="Token-backto-Currency" style="stroke:#181818;stroke-width:1.0;"/><polygon fill="none" points="277.03,99.11,265.1971,113.9418,276.4627,118.0752,277.03,99.11" style="stroke:#181818;stroke-width:1.0;"/></g><!--reverse link Token to NFT--><g id="link_Token_NFT"><path codeLine="49" d="M300.1701,116.0085 C310.4801,144.1085 321.58,174.39 331.93,202.62 " fill="none" id="Token-backto-NFT" style="stroke:#181818;stroke-width:1.0;"/><polygon fill="none" points="293.97,99.11,294.5373,118.0752,305.8029,113.9418,293.97,99.11" style="stroke:#181818;stroke-width:1.0;"/></g><!--reverse link Currency to Wallet--><g id="link_Currency_Wallet"><path codeLine="51" d="M230.5,257.08 C230.5,273.54 230.5,290.3 230.5,310.8 " fill="none" id="Currency-backto-Wallet" style="stroke:#181818;stroke-width:1.0;"/><polygon fill="#181818" points="230.5,251.08,226.5,260.08,230.5,256.08,234.5,260.08,230.5,251.08" style="stroke:#181818;stroke-width:1.0;"/></g><!--link Transaction to TransactionBatch--><g id="link_Transaction_TransactionBatch"><path codeLine="52" d="M113.87,143.1 C104.75,164.48 97.614,181.191 90.764,197.251 " fill="none" id="Transaction-to-TransactionBatch" style="stroke:#181818;stroke-width:1.0;"/><polygon fill="#181818" points="88.41,202.77,95.6203,196.0609,90.3716,198.1709,88.2617,192.9223,88.41,202.77" style="stroke:#181818;stroke-width:1.0;"/></g><!--link Transaction to Currency--><g id="link_Transaction_Currency"><path codeLine="53" d="M181.87,143.1 C194.41,164.48 204.4144,181.5346 213.8344,197.5946 " fill="none" id="Transaction-to-Currency" style="stroke:#181818;stroke-width:1.0;"/><polygon fill="#181818" points="216.87,202.77,215.7668,192.9831,214.3403,198.4572,208.8663,197.0306,216.87,202.77" style="stroke:#181818;stroke-width:1.0;"/></g><!--reverse link Wallet to TokensBag--><g id="link_Wallet_TokensBag"><path codeLine="55" d="M230.5,430.03 C230.5,449.32 230.5,453.15 230.5,471.53 " fill="none" id="Wallet-backto-TokensBag" style="stroke:#181818;stroke-width:1.0;"/><polygon fill="none" points="230.5,412.03,224.5,430.03,236.5,430.03,230.5,412.03" style="stroke:#181818;stroke-width:1.0;"/></g><!--SRC=[RP6xRiCm34LtVON7Pl0V51rSe5FG9G4o58MXgAmjH8z0f8e4QV-ziXwMy_1Yyf8y9Aw4ueZDphe3k0jhmeV47JsjOWmd49uWPqZsc4CkI5eJaZ_6c8YCBIWO7DUTfGIIHbBl4LmlHbw86X3v0Ft8pPS2bmWPuBZ114u0gaA_voJ6g7uxgrFPvjy1p5q_IGqFqTq4kjJAD8qT7zBAwTmOh2NIHon-LioEAmLqqocySs34EVcYhJV4hl5XMyfUS-iilBzjwocRCnBe3RWVAQ1O65v3gUXIFa6Qqb6ajJJ-L4LsnMcUVzjsCVMekWGm5azEXNBlKWidCvQCQ5f_R5yMNTNbfWs5MzVl6kR90emRvYVv1m00]--></g></svg>